<svg width="1600" height="900" viewBox="0 0 1600 900" fill="none" xmlns="http://www.w3.org/2000/svg" role="img" aria-label="Production RAG Studio hero illustration">
  <defs>
    <linearGradient id="bg" x1="0" y1="0" x2="1" y2="1">
      <stop offset="0" stop-color="#0B1020"/>
      <stop offset="0.45" stop-color="#1E1B4B"/>
      <stop offset="1" stop-color="#4C1D95"/>
    </linearGradient>
    <linearGradient id="glass" x1="0" y1="0" x2="0" y2="1">
      <stop offset="0" stop-color="#FFFFFF" stop-opacity="0.14"/>
      <stop offset="1" stop-color="#FFFFFF" stop-opacity="0.06"/>
    </linearGradient>
    <linearGradient id="panel" x1="0" y1="0" x2="0" y2="1">
      <stop offset="0" stop-color="#FFFFFF"/>
      <stop offset="1" stop-color="#F8FAFC"/>
    </linearGradient>
    <filter id="softGlow" x="-20%" y="-20%" width="140%" height="140%">
      <feGaussianBlur stdDeviation="18" result="blur"/>
      <feColorMatrix in="blur" type="matrix"
        values="1 0 0 0 0
                0 1 0 0 0
                0 0 1 0 0
                0 0 0 .25 0" result="glow"/>
      <feMerge>
        <feMergeNode in="glow"/>
        <feMergeNode in="SourceGraphic"/>
      </feMerge>
    </filter>
    <filter id="shadow" x="-30%" y="-30%" width="160%" height="160%">
      <feDropShadow dx="0" dy="18" stdDeviation="24" flood-color="#000000" flood-opacity="0.35"/>
    </filter>
    <filter id="cardShadow" x="-30%" y="-30%" width="160%" height="160%">
      <feDropShadow dx="0" dy="6" stdDeviation="10" flood-color="#0B1020" flood-opacity="0.18"/>
    </filter>
    <style>
      .t0{font: 700 56px ui-sans-serif,system-ui,-apple-system,"Segoe UI",Roboto,Arial;}
      .t1{font: 500 22px ui-sans-serif,system-ui,-apple-system,"Segoe UI",Roboto,Arial;}
      .t2{font: 650 18px ui-sans-serif,system-ui,-apple-system,"Segoe UI",Roboto,Arial;}
      .mono{font: 600 14px ui-monospace,SFMono-Regular,Menlo,Consolas,monospace;}
    </style>
  </defs>

  <!-- Background -->
  <rect x="0" y="0" width="1600" height="900" fill="url(#bg)"/>
  <circle cx="270" cy="210" r="220" fill="#22D3EE" opacity="0.09" filter="url(#softGlow)"/>
  <circle cx="1320" cy="160" r="260" fill="#A78BFA" opacity="0.11" filter="url(#softGlow)"/>
  <circle cx="1280" cy="760" r="320" fill="#34D399" opacity="0.06" filter="url(#softGlow)"/>

  <!-- Title -->
  <g transform="translate(120,110)">
    <text class="t0" fill="#EEF2FF">Production RAG Studio</text>
    <text y="54" class="t1" fill="#C7D2FE" opacity="0.92">Evidence-bound answers with step-by-step verification and RAGAS tracking.</text>
  </g>

  <!-- Chips -->
  <g transform="translate(120,205)">
    <g opacity="0.95">
      <rect x="0" y="0" rx="18" ry="18" width="122" height="36" fill="url(#glass)" stroke="#FFFFFF" stroke-opacity="0.22"/>
      <text x="18" y="24" class="mono" fill="#E0E7FF">EU AI Act</text>
    </g>
    <g transform="translate(138,0)" opacity="0.95">
      <rect x="0" y="0" rx="18" ry="18" width="92" height="36" fill="url(#glass)" stroke="#FFFFFF" stroke-opacity="0.22"/>
      <text x="18" y="24" class="mono" fill="#E0E7FF">arXiv</text>
    </g>
    <g transform="translate(246,0)" opacity="0.95">
      <rect x="0" y="0" rx="18" ry="18" width="102" height="36" fill="url(#glass)" stroke="#FFFFFF" stroke-opacity="0.22"/>
      <text x="18" y="24" class="mono" fill="#E0E7FF">Chroma</text>
    </g>
    <g transform="translate(364,0)" opacity="0.95">
      <rect x="0" y="0" rx="18" ry="18" width="124" height="36" fill="url(#glass)" stroke="#FFFFFF" stroke-opacity="0.22"/>
      <text x="18" y="24" class="mono" fill="#E0E7FF">FlashRank</text>
    </g>
    <g transform="translate(504,0)" opacity="0.95">
      <rect x="0" y="0" rx="18" ry="18" width="92" height="36" fill="url(#glass)" stroke="#FFFFFF" stroke-opacity="0.22"/>
      <text x="18" y="24" class="mono" fill="#E0E7FF">RAGAS</text>
    </g>
    <g transform="translate(612,0)" opacity="0.95">
      <rect x="0" y="0" rx="18" ry="18" width="102" height="36" fill="url(#glass)" stroke="#FFFFFF" stroke-opacity="0.22"/>
      <text x="18" y="24" class="mono" fill="#E0E7FF">Gradio</text>
    </g>
  </g>

  <!-- App mock -->
  <g transform="translate(120,285)" filter="url(#shadow)">
    <rect x="0" y="0" width="1360" height="520" rx="28" ry="28" fill="rgba(255,255,255,0.06)" stroke="#FFFFFF" stroke-opacity="0.18"/>
    <rect x="22" y="22" width="1316" height="476" rx="22" ry="22" fill="url(#panel)"/>

    <!-- left sidebar -->
    <g transform="translate(52,62)">
      <rect x="0" y="0" width="420" height="410" rx="18" fill="#FFFFFF" stroke="#E2E8F0"/>
      <text x="22" y="36" class="t2" fill="#0F172A">Ask</text>
      <rect x="22" y="58" width="376" height="52" rx="12" fill="#F1F5F9" stroke="#E2E8F0"/>
      <text x="38" y="90" class="mono" fill="#64748B">Question&</text>
      <rect x="22" y="126" width="240" height="46" rx="12" fill="#4C1D95"/>
      <text x="44" y="156" class="mono" fill="#EEF2FF">Run RAG ’ Answer</text>
      <rect x="22" y="194" width="376" height="154" rx="14" fill="#F8FAFC" stroke="#E2E8F0"/>
      <text x="38" y="222" class="mono" fill="#64748B">Answer (grounded)&</text>
      <rect x="22" y="362" width="376" height="32" rx="10" fill="#F1F5F9" stroke="#E2E8F0"/>
      <text x="38" y="383" class="mono" fill="#64748B">Retrieved contexts ¸</text>
    </g>

    <!-- right verification timeline -->
    <g transform="translate(512,62)">
      <rect x="0" y="0" width="776" height="410" rx="18" fill="#FFFFFF" stroke="#E2E8F0"/>
      <text x="22" y="36" class="t2" fill="#0F172A">Pipeline verification</text>

      <!-- cards -->
      <g transform="translate(22,58)" filter="url(#cardShadow)">
        <rect x="0" y="0" width="732" height="62" rx="14" fill="#ECFDF5" stroke="#A7F3D0"/>
        <rect x="0" y="0" width="6" height="62" rx="3" fill="#059669"/>
        <text x="18" y="28" class="mono" fill="#065F46">1</text>
        <text x="42" y="28" class="mono" fill="#0F172A">Vector index ready</text>
        <text x="42" y="48" class="mono" fill="#475569">chunks: 976</text>
      </g>
      <g transform="translate(22,134)" filter="url(#cardShadow)">
        <rect x="0" y="0" width="732" height="62" rx="14" fill="#EEF2FF" stroke="#C7D2FE"/>
        <rect x="0" y="0" width="6" height="62" rx="3" fill="#4C1D95"/>
        <text x="18" y="28" class="mono" fill="#312E81">2</text>
        <text x="42" y="28" class="mono" fill="#0F172A">Embedding computed</text>
        <text x="42" y="48" class="mono" fill="#475569">text-embedding-3-small · dim: 1536</text>
      </g>
      <g transform="translate(22,210)" filter="url(#cardShadow)">
        <rect x="0" y="0" width="732" height="62" rx="14" fill="#FFFBEB" stroke="#FDE68A"/>
        <rect x="0" y="0" width="6" height="62" rx="3" fill="#D97706"/>
        <text x="18" y="28" class="mono" fill="#92400E">3</text>
        <text x="42" y="28" class="mono" fill="#0F172A">Similarity search</text>
        <text x="42" y="48" class="mono" fill="#475569">k: 12 · hits: 12 · dist: 0.070.22</text>
      </g>
      <g transform="translate(22,286)" filter="url(#cardShadow)">
        <rect x="0" y="0" width="732" height="62" rx="14" fill="#ECFDF5" stroke="#A7F3D0"/>
        <rect x="0" y="0" width="6" height="62" rx="3" fill="#059669"/>
        <text x="18" y="28" class="mono" fill="#065F46">4</text>
        <text x="42" y="28" class="mono" fill="#0F172A">Rerank + generate</text>
        <text x="42" y="48" class="mono" fill="#475569">FlashRank ’ gpt-4o-mini</text>
      </g>
    </g>
  </g>

  <!-- Subtle bottom caption -->
  <text x="120" y="860" class="mono" fill="#C7D2FE" opacity="0.85">Illustration: Gradio UI with per-step verification trace.</text>
</svg>
